<mxfile host="app.diagrams.net" agent="Mozilla/5.0 (Windows NT 10.0; Win64; x64; rv:133.0) Gecko/20100101 Firefox/133.0" version="24.9.2">
  <diagram id="C5RBs43oDa-KdzZeNtuy" name="Page-1">
    <mxGraphModel dx="1226" dy="558" grid="1" gridSize="10" guides="1" tooltips="1" connect="1" arrows="1" fold="1" page="1" pageScale="1" pageWidth="827" pageHeight="1169" math="0" shadow="0">
      <root>
        <mxCell id="WIyWlLk6GJQsqaUBKTNV-0" />
        <mxCell id="WIyWlLk6GJQsqaUBKTNV-1" parent="WIyWlLk6GJQsqaUBKTNV-0" />
        <mxCell id="WIyWlLk6GJQsqaUBKTNV-3" value="UI" style="rounded=1;whiteSpace=wrap;html=1;fontSize=12;glass=0;strokeWidth=1;shadow=0;" parent="WIyWlLk6GJQsqaUBKTNV-1" vertex="1">
          <mxGeometry x="190" y="115" width="120" height="40" as="geometry" />
        </mxCell>
        <mxCell id="nUDOu48I47__IAp-m4oY-0" value="Actor" style="shape=umlActor;verticalLabelPosition=bottom;verticalAlign=top;html=1;outlineConnect=0;" vertex="1" parent="WIyWlLk6GJQsqaUBKTNV-1">
          <mxGeometry x="100" y="95" width="30" height="60" as="geometry" />
        </mxCell>
        <mxCell id="nUDOu48I47__IAp-m4oY-1" value="" style="endArrow=none;dashed=1;html=1;dashPattern=1 3;strokeWidth=2;rounded=0;" edge="1" parent="WIyWlLk6GJQsqaUBKTNV-1">
          <mxGeometry width="50" height="50" relative="1" as="geometry">
            <mxPoint x="330" y="524" as="sourcePoint" />
            <mxPoint x="330" y="54" as="targetPoint" />
          </mxGeometry>
        </mxCell>
        <mxCell id="nUDOu48I47__IAp-m4oY-2" value="Log Workout" style="rounded=1;whiteSpace=wrap;html=1;fontSize=12;glass=0;strokeWidth=1;shadow=0;" vertex="1" parent="WIyWlLk6GJQsqaUBKTNV-1">
          <mxGeometry x="354" y="115" width="120" height="40" as="geometry" />
        </mxCell>
        <mxCell id="nUDOu48I47__IAp-m4oY-3" value="" style="endArrow=classic;html=1;rounded=0;entryX=0;entryY=0.5;entryDx=0;entryDy=0;" edge="1" parent="WIyWlLk6GJQsqaUBKTNV-1" target="WIyWlLk6GJQsqaUBKTNV-3">
          <mxGeometry width="50" height="50" relative="1" as="geometry">
            <mxPoint x="140" y="135" as="sourcePoint" />
            <mxPoint x="440" y="175" as="targetPoint" />
          </mxGeometry>
        </mxCell>
        <mxCell id="nUDOu48I47__IAp-m4oY-4" value="" style="endArrow=classic;html=1;rounded=0;exitX=1;exitY=0.5;exitDx=0;exitDy=0;entryX=0;entryY=0.5;entryDx=0;entryDy=0;" edge="1" parent="WIyWlLk6GJQsqaUBKTNV-1" source="WIyWlLk6GJQsqaUBKTNV-3" target="nUDOu48I47__IAp-m4oY-2">
          <mxGeometry width="50" height="50" relative="1" as="geometry">
            <mxPoint x="390" y="225" as="sourcePoint" />
            <mxPoint x="440" y="175" as="targetPoint" />
          </mxGeometry>
        </mxCell>
        <mxCell id="nUDOu48I47__IAp-m4oY-6" value="&lt;div&gt;Categorize by &lt;br&gt;&lt;/div&gt;&lt;div&gt;Body Parts&lt;br&gt;&lt;/div&gt;" style="shape=parallelogram;perimeter=parallelogramPerimeter;whiteSpace=wrap;html=1;fixedSize=1;" vertex="1" parent="WIyWlLk6GJQsqaUBKTNV-1">
          <mxGeometry x="510" y="105" width="120" height="60" as="geometry" />
        </mxCell>
        <mxCell id="nUDOu48I47__IAp-m4oY-7" value="" style="endArrow=classic;html=1;rounded=0;exitX=1;exitY=0.5;exitDx=0;exitDy=0;" edge="1" parent="WIyWlLk6GJQsqaUBKTNV-1" source="nUDOu48I47__IAp-m4oY-2" target="nUDOu48I47__IAp-m4oY-6">
          <mxGeometry width="50" height="50" relative="1" as="geometry">
            <mxPoint x="430" y="225" as="sourcePoint" />
            <mxPoint x="480" y="175" as="targetPoint" />
          </mxGeometry>
        </mxCell>
        <mxCell id="nUDOu48I47__IAp-m4oY-9" value="" style="endArrow=classic;html=1;rounded=0;exitX=1;exitY=0.5;exitDx=0;exitDy=0;entryX=0;entryY=0.5;entryDx=0;entryDy=0;entryPerimeter=0;" edge="1" parent="WIyWlLk6GJQsqaUBKTNV-1" source="nUDOu48I47__IAp-m4oY-6" target="nUDOu48I47__IAp-m4oY-10">
          <mxGeometry width="50" height="50" relative="1" as="geometry">
            <mxPoint x="480" y="225" as="sourcePoint" />
            <mxPoint x="740" y="135" as="targetPoint" />
          </mxGeometry>
        </mxCell>
        <mxCell id="nUDOu48I47__IAp-m4oY-10" value="PostgreSQL" style="shape=cylinder3;whiteSpace=wrap;html=1;boundedLbl=1;backgroundOutline=1;size=15;" vertex="1" parent="WIyWlLk6GJQsqaUBKTNV-1">
          <mxGeometry x="670" y="90" width="90" height="90" as="geometry" />
        </mxCell>
        <mxCell id="nUDOu48I47__IAp-m4oY-13" value="By date: YYYY/MM/DD" style="text;strokeColor=none;align=center;fillColor=none;html=1;verticalAlign=middle;whiteSpace=wrap;rounded=0;" vertex="1" parent="WIyWlLk6GJQsqaUBKTNV-1">
          <mxGeometry x="347" y="75" width="134" height="30" as="geometry" />
        </mxCell>
        <mxCell id="nUDOu48I47__IAp-m4oY-14" value="Point System" style="rounded=1;whiteSpace=wrap;html=1;" vertex="1" parent="WIyWlLk6GJQsqaUBKTNV-1">
          <mxGeometry x="450" y="260" width="120" height="60" as="geometry" />
        </mxCell>
        <mxCell id="nUDOu48I47__IAp-m4oY-15" value="" style="endArrow=classic;html=1;rounded=0;exitX=0.5;exitY=1;exitDx=0;exitDy=0;exitPerimeter=0;entryX=1;entryY=0.5;entryDx=0;entryDy=0;" edge="1" parent="WIyWlLk6GJQsqaUBKTNV-1" source="nUDOu48I47__IAp-m4oY-10" target="nUDOu48I47__IAp-m4oY-14">
          <mxGeometry width="50" height="50" relative="1" as="geometry">
            <mxPoint x="620" y="300" as="sourcePoint" />
            <mxPoint x="670" y="250" as="targetPoint" />
            <Array as="points">
              <mxPoint x="715" y="290" />
            </Array>
          </mxGeometry>
        </mxCell>
        <mxCell id="nUDOu48I47__IAp-m4oY-16" value="&lt;div&gt;&lt;span data-renderer-mark=&quot;true&quot;&gt;Points = Repetitions × Weight × Intensity Factor&amp;nbsp;&lt;/span&gt;&lt;/div&gt;&lt;div&gt;&lt;span data-renderer-mark=&quot;true&quot;&gt;(e.g., 1 for low, 1.5 for medium, 2 for high)&lt;/span&gt;&lt;/div&gt;" style="text;html=1;align=center;verticalAlign=middle;resizable=0;points=[];autosize=1;strokeColor=none;fillColor=none;" vertex="1" parent="WIyWlLk6GJQsqaUBKTNV-1">
          <mxGeometry x="370" y="210" width="280" height="40" as="geometry" />
        </mxCell>
        <mxCell id="nUDOu48I47__IAp-m4oY-17" value="Dashboard" style="rounded=1;whiteSpace=wrap;html=1;" vertex="1" parent="WIyWlLk6GJQsqaUBKTNV-1">
          <mxGeometry x="450" y="370" width="120" height="60" as="geometry" />
        </mxCell>
        <mxCell id="nUDOu48I47__IAp-m4oY-18" value="" style="endArrow=classic;html=1;rounded=0;entryX=1;entryY=0.5;entryDx=0;entryDy=0;exitX=1;exitY=0.5;exitDx=0;exitDy=0;exitPerimeter=0;" edge="1" parent="WIyWlLk6GJQsqaUBKTNV-1" source="nUDOu48I47__IAp-m4oY-10" target="nUDOu48I47__IAp-m4oY-17">
          <mxGeometry width="50" height="50" relative="1" as="geometry">
            <mxPoint x="670" y="290" as="sourcePoint" />
            <mxPoint x="720" y="240" as="targetPoint" />
            <Array as="points">
              <mxPoint x="800" y="135" />
              <mxPoint x="800" y="400" />
            </Array>
          </mxGeometry>
        </mxCell>
        <mxCell id="nUDOu48I47__IAp-m4oY-19" value="&lt;div&gt;Display statistics: Line graph&lt;/div&gt;&lt;div&gt;&lt;br&gt;&lt;/div&gt;&lt;div&gt;Categorize by Body Parts&lt;br&gt;&lt;/div&gt;" style="text;html=1;align=center;verticalAlign=middle;resizable=0;points=[];autosize=1;strokeColor=none;fillColor=none;" vertex="1" parent="WIyWlLk6GJQsqaUBKTNV-1">
          <mxGeometry x="420" y="440" width="180" height="60" as="geometry" />
        </mxCell>
      </root>
    </mxGraphModel>
  </diagram>
</mxfile>
